<svg xmlns="http://www.w3.org/2000/svg"  viewBox="0 0 100 100" width="100px" height="100px"><path fill="#ff8405" d="M50,19L50,19c-17.673,0-30,14.327-30,32l0,0c0,3.269,1.575,6.162,4,7.986V80h52V58.986 c2.425-1.825,4-4.718,4-7.986l0,0C80,33.327,67.673,19,50,19z"/><path fill="#4343bf" d="M50,19c17.673,0,30,14.327,30,32c0,3.269-1.575,6.162-4,7.986V80H24V58.986 c-2.425-1.825-4-4.718-4-7.986C20,33.327,32.327,19,50,19 M50,13c-20.523,0-36,16.336-36,38c0,3.967,1.429,7.684,4,10.578V80v6h6 h52h6v-6V61.578c2.571-2.894,4-6.611,4-10.578C86,29.336,70.523,13,50,13L50,13z"/><path fill="#edf7f5" d="M68.5,40c0-3.313-2.686-6-6-6s-6,2.687-6,6c0,0.017,0.002,0.034,0.002,0.051 C56.172,40.021,55.838,40,55.5,40h-10c-0.688,0-1.357,0.071-2.01,0.192c0.002-0.064,0.01-0.127,0.01-0.192c0-3.313-2.686-6-6-6 s-6,2.687-6,6c0,2.732,1.828,5.034,4.327,5.759C34.981,47.317,34.5,49.103,34.5,51v4.228c0,3.559,2.743,6.663,6.3,6.77 c1.573,0.047,3.023-0.468,4.171-1.356C46.251,61.467,48.249,62,50.5,62c2.28,0,4.298-0.547,5.577-1.391 c1.034,0.826,2.312,1.345,3.723,1.388c3.681,0.11,6.7-2.841,6.7-6.497V51c0-2.025-0.557-3.916-1.511-5.545 C67.059,44.508,68.5,42.425,68.5,40z M53.5,52.561v2.667c0,0.039,0.005,0.077,0.005,0.115C52.594,55.125,51.577,55,50.5,55 c-1.075,0-2.09,0.125-3,0.341v-2.78c-2.363-0.723-4-2.267-4-4.061c0-2.485,3.134-4.5,7-4.5s7,2.015,7,4.5 C57.5,50.294,55.863,51.838,53.5,52.561z"/><rect width="64" height="10" x="18" y="80" fill="#3abcf8"/><rect width="4" height="14.375" x="31.375" y="65.625" fill="#edf7f5"/><rect width="4" height="14.375" x="64.375" y="65.625" fill="#edf7f5"/></svg>